<mxfile host="Electron" agent="Mozilla/5.0 (Windows NT 10.0; Win64; x64) AppleWebKit/537.36 (KHTML, like Gecko) draw.io/26.0.9 Chrome/128.0.6613.186 Electron/32.2.5 Safari/537.36" version="26.0.9">
  <diagram name="Page-1" id="EbmTruZII7EKrePTZyVd">
    <mxGraphModel dx="1195" dy="703" grid="1" gridSize="10" guides="1" tooltips="1" connect="1" arrows="1" fold="1" page="1" pageScale="1" pageWidth="827" pageHeight="1169" math="0" shadow="0">
      <root>
        <mxCell id="0" />
        <mxCell id="1" parent="0" />
        <mxCell id="Rwlf8ie4ue_BawDDI4tv-3" value="" style="rounded=1;whiteSpace=wrap;html=1;" vertex="1" parent="1">
          <mxGeometry x="200" y="120" width="220" height="460" as="geometry" />
        </mxCell>
        <mxCell id="Rwlf8ie4ue_BawDDI4tv-12" style="rounded=0;orthogonalLoop=1;jettySize=auto;html=1;" edge="1" parent="1" source="Rwlf8ie4ue_BawDDI4tv-1" target="Rwlf8ie4ue_BawDDI4tv-7">
          <mxGeometry relative="1" as="geometry" />
        </mxCell>
        <mxCell id="Rwlf8ie4ue_BawDDI4tv-17" style="rounded=0;orthogonalLoop=1;jettySize=auto;html=1;entryX=0;entryY=0.5;entryDx=0;entryDy=0;" edge="1" parent="1" source="Rwlf8ie4ue_BawDDI4tv-1" target="Rwlf8ie4ue_BawDDI4tv-8">
          <mxGeometry relative="1" as="geometry" />
        </mxCell>
        <mxCell id="Rwlf8ie4ue_BawDDI4tv-1" value="Kind" style="shape=umlActor;verticalLabelPosition=bottom;verticalAlign=top;html=1;outlineConnect=0;" vertex="1" parent="1">
          <mxGeometry x="120" y="170" width="30" height="60" as="geometry" />
        </mxCell>
        <mxCell id="Rwlf8ie4ue_BawDDI4tv-11" style="rounded=0;orthogonalLoop=1;jettySize=auto;html=1;entryX=0;entryY=0.5;entryDx=0;entryDy=0;" edge="1" parent="1" source="Rwlf8ie4ue_BawDDI4tv-2" target="Rwlf8ie4ue_BawDDI4tv-9">
          <mxGeometry relative="1" as="geometry" />
        </mxCell>
        <mxCell id="Rwlf8ie4ue_BawDDI4tv-16" style="rounded=0;orthogonalLoop=1;jettySize=auto;html=1;" edge="1" parent="1" source="Rwlf8ie4ue_BawDDI4tv-2" target="Rwlf8ie4ue_BawDDI4tv-8">
          <mxGeometry relative="1" as="geometry" />
        </mxCell>
        <mxCell id="Rwlf8ie4ue_BawDDI4tv-18" style="rounded=0;orthogonalLoop=1;jettySize=auto;html=1;entryX=0;entryY=0.5;entryDx=0;entryDy=0;" edge="1" parent="1" source="Rwlf8ie4ue_BawDDI4tv-2" target="Rwlf8ie4ue_BawDDI4tv-10">
          <mxGeometry relative="1" as="geometry" />
        </mxCell>
        <mxCell id="Rwlf8ie4ue_BawDDI4tv-2" value="Docter" style="shape=umlActor;verticalLabelPosition=bottom;verticalAlign=top;html=1;outlineConnect=0;" vertex="1" parent="1">
          <mxGeometry x="80" y="360" width="30" height="60" as="geometry" />
        </mxCell>
        <mxCell id="Rwlf8ie4ue_BawDDI4tv-4" value="Ons Systeem" style="text;html=1;align=center;verticalAlign=middle;whiteSpace=wrap;rounded=0;" vertex="1" parent="1">
          <mxGeometry x="260" y="120" width="100" height="30" as="geometry" />
        </mxCell>
        <mxCell id="Rwlf8ie4ue_BawDDI4tv-5" value="Bekijken Traject" style="ellipse;whiteSpace=wrap;html=1;" vertex="1" parent="1">
          <mxGeometry x="260" y="310" width="110" height="50" as="geometry" />
        </mxCell>
        <mxCell id="Rwlf8ie4ue_BawDDI4tv-20" style="edgeStyle=orthogonalEdgeStyle;rounded=0;orthogonalLoop=1;jettySize=auto;html=1;dashed=1;" edge="1" parent="1" source="Rwlf8ie4ue_BawDDI4tv-7" target="Rwlf8ie4ue_BawDDI4tv-19">
          <mxGeometry relative="1" as="geometry" />
        </mxCell>
        <mxCell id="Rwlf8ie4ue_BawDDI4tv-7" value="Doorlopen Traject" style="ellipse;whiteSpace=wrap;html=1;" vertex="1" parent="1">
          <mxGeometry x="260" y="250" width="110" height="50" as="geometry" />
        </mxCell>
        <mxCell id="Rwlf8ie4ue_BawDDI4tv-8" value="Login" style="ellipse;whiteSpace=wrap;html=1;" vertex="1" parent="1">
          <mxGeometry x="260" y="370" width="110" height="50" as="geometry" />
        </mxCell>
        <mxCell id="Rwlf8ie4ue_BawDDI4tv-9" value="Registreren" style="ellipse;whiteSpace=wrap;html=1;" vertex="1" parent="1">
          <mxGeometry x="260" y="440" width="110" height="50" as="geometry" />
        </mxCell>
        <mxCell id="Rwlf8ie4ue_BawDDI4tv-10" value="Kind registreren" style="ellipse;whiteSpace=wrap;html=1;" vertex="1" parent="1">
          <mxGeometry x="260" y="510" width="110" height="50" as="geometry" />
        </mxCell>
        <mxCell id="Rwlf8ie4ue_BawDDI4tv-15" style="rounded=0;orthogonalLoop=1;jettySize=auto;html=1;entryX=0.008;entryY=0.64;entryDx=0;entryDy=0;entryPerimeter=0;" edge="1" parent="1" target="Rwlf8ie4ue_BawDDI4tv-5">
          <mxGeometry relative="1" as="geometry">
            <mxPoint x="110" y="390" as="sourcePoint" />
          </mxGeometry>
        </mxCell>
        <mxCell id="Rwlf8ie4ue_BawDDI4tv-19" value="Stickers verzamelen" style="ellipse;whiteSpace=wrap;html=1;" vertex="1" parent="1">
          <mxGeometry x="260" y="150" width="110" height="50" as="geometry" />
        </mxCell>
        <mxCell id="Rwlf8ie4ue_BawDDI4tv-21" value="&amp;lt;&amp;lt;includes&amp;gt;&amp;gt;" style="text;html=1;align=center;verticalAlign=middle;whiteSpace=wrap;rounded=0;" vertex="1" parent="1">
          <mxGeometry x="330" y="220" width="60" height="30" as="geometry" />
        </mxCell>
      </root>
    </mxGraphModel>
  </diagram>
</mxfile>
